<svg width="333.1" height="100" viewBox="0 0 333.1 100" xmlns="http://www.w3.org/2000/svg" style=""><g id="svgGroup" stroke-linecap="round" fill-rule="evenodd" font-size="9pt" stroke="#fff" stroke-width="0.25mm" fill="none" style="stroke:#fff;stroke-width:0.25mm;fill:none"><path d="M 300.8 95.5 L 299.5 95.5 L 299.5 87.3 A 71.194 71.194 0 0 0 301.781 87.266 Q 303.964 87.196 305.487 86.982 A 19.292 19.292 0 0 0 305.7 86.95 A 10.996 10.996 0 0 0 306.891 86.706 Q 308.281 86.333 309 85.65 Q 310 84.7 310 83 A 4.692 4.692 0 0 0 309.967 82.501 Q 309.847 81.422 309.3 79 Q 308.6 75.9 307.8 72.4 L 296.2 23.2 L 307 23.2 L 314.8 66.4 L 322.3 23.2 L 333.1 23.2 L 319.3 84.2 A 16.647 16.647 0 0 1 318.327 87.31 Q 317.43 89.391 316 90.85 A 13.109 13.109 0 0 1 311.853 93.675 A 16.598 16.598 0 0 1 309.85 94.4 A 24.985 24.985 0 0 1 306.307 95.147 Q 304.506 95.401 302.449 95.472 A 47.603 47.603 0 0 1 300.8 95.5 Z M 130.7 65.6 L 139.6 62.9 A 33.519 33.519 0 0 0 140.19 65.997 Q 140.979 69.238 142.3 71.15 A 6.138 6.138 0 0 0 146.788 73.833 A 8.918 8.918 0 0 0 147.9 73.9 A 8.116 8.116 0 0 0 149.633 73.727 Q 150.718 73.49 151.528 72.928 A 4.536 4.536 0 0 0 152.3 72.25 A 5.563 5.563 0 0 0 153.58 69.776 Q 153.786 68.929 153.799 67.934 A 10.299 10.299 0 0 0 153.8 67.8 A 9.779 9.779 0 0 0 153.412 65.008 A 8.611 8.611 0 0 0 152.7 63.3 A 10.93 10.93 0 0 0 151.575 61.659 Q 150.956 60.902 150.144 60.131 A 23.01 23.01 0 0 0 149.1 59.2 L 139.2 50.7 Q 136.2 48.1 134.15 44.9 Q 132.381 42.139 132.138 37.962 A 23.512 23.512 0 0 1 132.1 36.6 A 18.995 18.995 0 0 1 132.405 33.102 Q 132.796 31.018 133.686 29.326 A 11.578 11.578 0 0 1 133.95 28.85 Q 135.8 25.7 139.15 24.05 A 15.682 15.682 0 0 1 143.534 22.673 A 21.135 21.135 0 0 1 147 22.4 A 17.043 17.043 0 0 1 151.337 22.92 A 11.641 11.641 0 0 1 157.55 26.85 Q 161.2 31.3 161.7 37.6 L 154.5 40.3 A 31.761 31.761 0 0 0 154.073 37.819 Q 153.801 36.551 153.438 35.452 A 18.74 18.74 0 0 0 153.3 35.05 A 10.534 10.534 0 0 0 152.551 33.387 Q 151.931 32.293 151.1 31.55 A 4.786 4.786 0 0 0 148.89 30.451 A 6.971 6.971 0 0 0 147.4 30.3 A 6.253 6.253 0 0 0 145.529 30.567 A 4.975 4.975 0 0 0 143.25 32.05 Q 141.7 33.8 141.7 36.2 A 7.122 7.122 0 0 0 142.309 39.057 A 8.174 8.174 0 0 0 142.35 39.15 Q 142.913 40.406 144.189 41.625 A 12.78 12.78 0 0 0 144.6 42 L 154.8 51.4 Q 156.9 53.3 158.75 55.5 A 19.803 19.803 0 0 1 161.705 60.283 A 22.138 22.138 0 0 1 161.8 60.5 A 14.432 14.432 0 0 1 162.77 63.935 A 19.546 19.546 0 0 1 163 67 A 19.869 19.869 0 0 1 162.682 70.651 Q 162.203 73.215 161 75.2 Q 159 78.5 155.4 80.15 Q 151.8 81.8 147 81.8 A 18.358 18.358 0 0 1 141.88 81.121 A 13.99 13.99 0 0 1 135.6 77.35 A 17.042 17.042 0 0 1 131.396 69.734 A 23.593 23.593 0 0 1 130.7 65.6 Z M 224.5 76.8 L 224.5 81 L 213.8 81 L 213.8 0 L 224.5 0 L 224.5 27.8 A 18.65 18.65 0 0 1 228.701 24.216 A 21.04 21.04 0 0 1 229.05 24 Q 231.7 22.4 235.4 22.4 Q 239.9 22.4 242.55 24.75 A 14.194 14.194 0 0 1 246.332 30.21 A 16.738 16.738 0 0 1 246.5 30.65 Q 247.8 34.2 248.2 37.85 A 80.174 80.174 0 0 1 248.444 40.44 Q 248.6 42.475 248.6 44.1 L 248.6 58.1 A 55.462 55.462 0 0 1 247.932 66.841 A 48.789 48.789 0 0 1 247.4 69.65 A 22.531 22.531 0 0 1 246.018 73.946 A 16.284 16.284 0 0 1 243.1 78.45 A 10.08 10.08 0 0 1 237.916 81.403 Q 236.262 81.8 234.3 81.8 A 10.594 10.594 0 0 1 230.595 81.164 A 9.81 9.81 0 0 1 228.75 80.25 A 23.159 23.159 0 0 1 225.69 77.955 A 19.96 19.96 0 0 1 224.5 76.8 Z M 192.6 44.9 L 192.6 40.8 A 50.602 50.602 0 0 0 192.548 38.44 Q 192.497 37.334 192.393 36.384 A 22.091 22.091 0 0 0 192.2 35 A 8.534 8.534 0 0 0 191.835 33.585 Q 191.38 32.314 190.55 31.55 Q 189.3 30.4 186.8 30.4 Q 185.002 30.4 183.772 31.068 A 4.411 4.411 0 0 0 183.25 31.4 A 5.2 5.2 0 0 0 181.697 33.277 A 6.886 6.886 0 0 0 181.3 34.25 A 11.571 11.571 0 0 0 180.869 36.128 Q 180.732 37.058 180.706 38.109 A 20.039 20.039 0 0 0 180.7 38.6 L 180.7 41.5 L 170.1 41.1 A 35.711 35.711 0 0 1 170.561 35.909 Q 171.008 33.262 171.88 31.152 A 14.01 14.01 0 0 1 174.5 26.95 Q 177.989 23.17 184.654 22.531 A 29.817 29.817 0 0 1 187.5 22.4 Q 196.1 22.4 199.7 27.1 Q 202.422 30.654 203.086 36.609 A 36.986 36.986 0 0 1 203.3 40.7 L 203.3 67.1 Q 203.3 69.8 203.45 72.3 Q 203.6 74.8 203.85 76.95 Q 204.1 79.1 204.3 81 L 194.5 81 Q 194.215 79.48 193.794 77.192 A 1998.942 1998.942 0 0 1 193.75 76.95 A 64.929 64.929 0 0 1 193.365 74.63 Q 193.201 73.508 193.1 72.5 A 14.326 14.326 0 0 1 190.886 76.914 A 18.395 18.395 0 0 1 189.25 78.85 A 9.4 9.4 0 0 1 184.332 81.509 A 13.969 13.969 0 0 1 181.4 81.8 Q 178 81.8 175.4 79.85 Q 172.8 77.9 171.3 74.85 Q 169.8 71.8 169.8 68.4 Q 169.8 63.812 171.099 60.452 A 14.97 14.97 0 0 1 171.6 59.3 Q 173.4 55.6 176.55 53.05 Q 179.7 50.5 183.85 48.6 A 163.822 163.822 0 0 1 190.328 45.807 A 184.355 184.355 0 0 1 192.6 44.9 Z M 11.3 81 L 0 81 L 0 0 L 20.1 0 A 32.706 32.706 0 0 1 24.721 0.306 Q 28.878 0.901 31.75 2.65 A 15.296 15.296 0 0 1 38.005 10.067 A 18.828 18.828 0 0 1 38.1 10.3 A 26.15 26.15 0 0 1 39.536 15.449 Q 39.977 17.933 40.073 20.779 A 47.875 47.875 0 0 1 40.1 22.4 A 30.763 30.763 0 0 1 39.669 27.675 A 22.264 22.264 0 0 1 37.85 33.5 Q 35.6 38.2 31.2 40.75 Q 27.221 43.056 21.443 43.277 A 32.574 32.574 0 0 1 20.2 43.3 L 11.3 43.3 L 11.3 81 Z M 257.2 58.7 L 257.2 45.5 Q 257.2 37.8 258.7 32.7 A 16.286 16.286 0 0 1 260.366 28.842 A 12.464 12.464 0 0 1 263.95 25 Q 266.909 22.949 271.642 22.516 A 29.218 29.218 0 0 1 274.3 22.4 A 28.35 28.35 0 0 1 278.102 22.638 Q 282.57 23.244 285.05 25.4 Q 288.401 28.314 289.535 33.727 A 23.179 23.179 0 0 1 289.6 34.05 A 54.015 54.015 0 0 1 290.312 39.012 Q 290.7 42.91 290.7 47.6 L 290.7 52.3 L 267.9 52.3 L 267.9 63.9 A 30.954 30.954 0 0 0 267.977 66.153 Q 268.055 67.217 268.212 68.124 A 13.117 13.117 0 0 0 268.55 69.6 A 7.856 7.856 0 0 0 269.135 71.061 Q 269.732 72.186 270.65 72.85 Q 272.1 73.9 274.4 73.9 A 8.014 8.014 0 0 0 275.788 73.788 Q 277.191 73.541 278.05 72.75 Q 279.193 71.699 279.667 69.812 A 9.315 9.315 0 0 0 279.75 69.45 Q 280.137 67.603 280.191 65.201 A 35.381 35.381 0 0 0 280.2 64.4 L 280.2 60.9 L 290.6 60.9 L 290.6 63.1 Q 290.6 71.8 286.9 76.8 A 11.316 11.316 0 0 1 281.501 80.702 Q 279.537 81.414 277.092 81.665 A 27.424 27.424 0 0 1 274.3 81.8 A 28.138 28.138 0 0 1 270.353 81.542 Q 266.344 80.972 263.8 79.15 A 12.777 12.777 0 0 1 259.709 74.188 A 17.474 17.474 0 0 1 258.65 71.35 Q 257.523 67.347 257.272 61.924 A 69.786 69.786 0 0 1 257.2 58.7 Z M 99.7 100 L 89 100 L 89 23.2 L 99.7 23.2 L 99.7 27.8 A 18.109 18.109 0 0 1 103.556 24.462 A 20.792 20.792 0 0 1 104.3 24 A 11.303 11.303 0 0 1 108.274 22.589 A 14.99 14.99 0 0 1 110.7 22.4 Q 115.2 22.4 117.85 24.75 A 14.194 14.194 0 0 1 121.632 30.21 A 16.738 16.738 0 0 1 121.8 30.65 Q 123.1 34.2 123.5 37.85 Q 123.9 41.5 123.9 44.1 L 123.9 58.1 A 55.462 55.462 0 0 1 123.232 66.841 A 48.789 48.789 0 0 1 122.7 69.65 Q 121.5 75.1 118.35 78.45 A 10.291 10.291 0 0 1 113.042 81.422 A 15.64 15.64 0 0 1 109.5 81.8 Q 106.4 81.8 104 80.25 Q 101.6 78.7 99.7 76.7 L 99.7 100 Z M 45.5 60.5 L 45.5 43.7 A 45.966 45.966 0 0 1 45.791 38.383 Q 46.101 35.731 46.738 33.439 A 26.424 26.424 0 0 1 47.05 32.4 A 15.617 15.617 0 0 1 49.056 28.267 A 13.059 13.059 0 0 1 52.3 25 A 13.02 13.02 0 0 1 56.207 23.178 Q 57.89 22.692 59.889 22.51 A 27.673 27.673 0 0 1 62.4 22.4 A 25.504 25.504 0 0 1 66.304 22.68 Q 68.374 23.002 70.055 23.692 A 11.902 11.902 0 0 1 72.45 25 A 13.493 13.493 0 0 1 76.926 30.524 A 17.488 17.488 0 0 1 77.65 32.4 Q 79.2 37.2 79.2 43.7 L 79.2 60.5 A 45.966 45.966 0 0 1 78.909 65.817 Q 78.599 68.47 77.962 70.762 A 26.424 26.424 0 0 1 77.65 71.8 A 15.878 15.878 0 0 1 75.696 75.876 A 13.065 13.065 0 0 1 72.45 79.2 A 12.725 12.725 0 0 1 68.597 81.017 Q 66.919 81.507 64.918 81.69 A 27.59 27.59 0 0 1 62.4 81.8 A 25.486 25.486 0 0 1 58.405 81.507 Q 54.757 80.927 52.3 79.2 A 13.469 13.469 0 0 1 47.707 73.523 A 17.319 17.319 0 0 1 47.05 71.8 Q 45.5 67 45.5 60.5 Z M 113.2 58.1 L 113.2 44.1 A 56.881 56.881 0 0 0 113.073 40.224 A 44.9 44.9 0 0 0 112.8 37.45 A 14.736 14.736 0 0 0 112.396 35.42 Q 112.107 34.378 111.673 33.537 A 7.367 7.367 0 0 0 111.1 32.6 A 4.16 4.16 0 0 0 108.64 30.985 Q 107.92 30.806 107.056 30.801 A 8.639 8.639 0 0 0 107 30.8 Q 104.9 30.8 103 31.7 A 15.974 15.974 0 0 0 100.92 32.875 A 13.136 13.136 0 0 0 99.7 33.8 L 99.7 70.8 Q 101.2 71.9 103.1 72.65 A 10.612 10.612 0 0 0 105.653 73.293 A 13.699 13.699 0 0 0 107.4 73.4 A 5.967 5.967 0 0 0 108.958 73.21 A 3.905 3.905 0 0 0 111.4 71.35 A 9.286 9.286 0 0 0 112.213 69.487 Q 112.72 67.906 112.9 65.8 Q 113.2 62.3 113.2 58.1 Z M 237.9 58.1 L 237.9 44.1 A 56.881 56.881 0 0 0 237.773 40.224 A 44.9 44.9 0 0 0 237.5 37.45 A 14.736 14.736 0 0 0 237.096 35.42 Q 236.807 34.378 236.373 33.537 A 7.367 7.367 0 0 0 235.8 32.6 A 4.16 4.16 0 0 0 233.34 30.985 Q 232.62 30.806 231.756 30.801 A 8.639 8.639 0 0 0 231.7 30.8 Q 229.6 30.8 227.75 31.7 A 19.765 19.765 0 0 0 225.811 32.776 A 15.908 15.908 0 0 0 224.5 33.7 L 224.5 70.8 A 11.654 11.654 0 0 0 226.356 71.983 A 14.912 14.912 0 0 0 227.85 72.65 A 11.361 11.361 0 0 0 231.11 73.364 A 13.444 13.444 0 0 0 232.1 73.4 A 5.967 5.967 0 0 0 233.658 73.21 A 3.905 3.905 0 0 0 236.1 71.35 A 9.286 9.286 0 0 0 236.913 69.487 Q 237.42 67.906 237.6 65.8 Q 237.9 62.3 237.9 58.1 Z M 68.5 61.2 L 68.5 43.1 A 77.644 77.644 0 0 0 68.402 39.132 A 64.274 64.274 0 0 0 68.25 36.9 Q 68.036 34.415 67.087 32.7 A 7.276 7.276 0 0 0 66.75 32.15 A 3.906 3.906 0 0 0 64.686 30.63 Q 63.998 30.398 63.147 30.329 A 9.289 9.289 0 0 0 62.4 30.3 A 8.154 8.154 0 0 0 60.799 30.447 Q 59.874 30.632 59.178 31.053 A 3.87 3.87 0 0 0 58 32.15 Q 56.7 34 56.45 36.9 Q 56.2 39.8 56.2 43.1 L 56.2 61.2 A 74.488 74.488 0 0 0 56.365 66.235 A 66.295 66.295 0 0 0 56.45 67.35 A 12.587 12.587 0 0 0 56.783 69.391 Q 57.059 70.478 57.531 71.351 A 6.794 6.794 0 0 0 58 72.1 A 4.028 4.028 0 0 0 60.032 73.556 Q 60.728 73.793 61.586 73.867 A 9.481 9.481 0 0 0 62.4 73.9 Q 65.5 73.9 66.75 72.1 A 7.6 7.6 0 0 0 67.702 70.16 Q 68.117 68.918 68.25 67.35 A 71.297 71.297 0 0 0 68.491 62.392 A 80.138 80.138 0 0 0 68.5 61.2 Z M 11.3 8.1 L 11.3 35.2 L 16.5 35.2 A 35.505 35.505 0 0 0 19.357 35.093 Q 22.275 34.857 24.2 34.1 Q 27 33 28.2 30.25 Q 29.349 27.617 29.398 22.919 A 40.491 40.491 0 0 0 29.4 22.5 A 63.828 63.828 0 0 0 29.325 19.295 Q 29.148 15.78 28.55 13.6 A 7.282 7.282 0 0 0 27.604 11.468 A 5.968 5.968 0 0 0 25 9.3 Q 22.3 8.1 16.6 8.1 L 11.3 8.1 Z M 192.6 67.8 L 192.6 51.4 A 100.937 100.937 0 0 0 189.019 53.5 A 87.557 87.557 0 0 0 187.9 54.2 Q 185.7 55.6 184.05 57.15 Q 182.4 58.7 181.45 60.65 A 9.366 9.366 0 0 0 180.595 63.573 A 11.909 11.909 0 0 0 180.5 65.1 A 15.241 15.241 0 0 0 180.64 67.236 Q 180.792 68.309 181.11 69.192 A 6.805 6.805 0 0 0 181.8 70.6 A 4.306 4.306 0 0 0 183.341 72.069 Q 184.159 72.517 185.205 72.587 A 5.905 5.905 0 0 0 185.6 72.6 Q 187.2 72.6 188.6 71.7 Q 190 70.8 191.1 69.65 A 21.338 21.338 0 0 0 191.606 69.103 Q 192.131 68.515 192.43 68.072 A 4.31 4.31 0 0 0 192.6 67.8 Z M 267.9 43.4 L 267.9 46.5 L 280.2 46.5 L 280.2 41.3 A 53.833 53.833 0 0 0 280.144 38.762 Q 280.05 36.782 279.8 35.25 Q 279.4 32.8 278.15 31.55 Q 276.9 30.3 274.2 30.3 A 8.999 8.999 0 0 0 272.697 30.418 Q 271.896 30.553 271.259 30.847 A 4.079 4.079 0 0 0 270.25 31.5 A 4.442 4.442 0 0 0 269.325 32.69 Q 268.707 33.809 268.402 35.537 A 15.182 15.182 0 0 0 268.4 35.55 A 26.496 26.496 0 0 0 268.136 37.542 Q 267.933 39.622 267.905 42.454 A 93.884 93.884 0 0 0 267.9 43.4 Z" vector-effect="non-scaling-stroke" class="lavYxsoJ_0"></path></g><style data-made-with="vivus-instant">.lavYxsoJ_0{stroke-dasharray:2310 2312;stroke-dashoffset:2311;animation:lavYxsoJ_draw_0 3000ms ease-in-out 0ms infinite,lavYxsoJ_fade 3000ms linear 0ms infinite;}@keyframes lavYxsoJ_draw{100%{stroke-dashoffset:0;}}@keyframes lavYxsoJ_fade{0%{stroke-opacity:1;}100%{stroke-opacity:1;}100%{stroke-opacity:0;}}@keyframes lavYxsoJ_draw_0{0%{stroke-dashoffset: 2311}100%{ stroke-dashoffset: 0;}100%{ stroke-dashoffset: 0;}}</style></svg>